<?xml version="1.0" encoding="UTF-8"?>
<!-- Generated by Pixelmator Pro 2.3.8 -->
<svg width="22" height="22" viewBox="0 0 22 22" xmlns="http://www.w3.org/2000/svg" xmlns:xlink="http://www.w3.org/1999/xlink">
    <path id="Path" fill="#991b1b" stroke="none" d="M 13.035687 9.230374 C 12.403188 9.230374 11.904063 9.773499 11.904063 10.450687 C 11.904063 11.127875 12.414532 11.671 13.035687 11.671 C 13.668188 11.671 14.167313 11.127875 14.167313 10.450687 C 14.167313 9.773499 13.656844 9.230374 13.035687 9.230374 Z M 8.986313 9.230374 C 8.353812 9.230374 7.854688 9.773499 7.854688 10.450687 C 7.854688 11.127875 8.365156 11.671 8.986313 11.671 C 9.618813 11.671 10.117937 11.127875 10.117937 10.450687 C 10.128938 9.773499 9.618813 9.230374 8.986313 9.230374 Z M 18.427752 0 L 3.56125 0 C 2.306315 0.002647 1.289647 1.019314 1.287 2.27425 L 1.287 17.140749 C 1.289647 18.395685 2.306315 19.412352 3.56125 19.415001 L 16.1425 19.415001 L 15.558125 17.384813 L 16.977812 18.693813 L 18.320156 19.925125 L 20.712999 22 L 20.712999 2.27425 C 20.702 1.020939 19.681406 0 18.427752 0 Z M 14.145313 14.367031 L 13.413125 13.479469 C 14.866501 13.069032 15.421312 12.170468 15.421312 12.170468 C 14.966532 12.469532 14.53375 12.680937 14.145313 12.824968 C 13.5905 13.058031 13.058031 13.202062 12.536563 13.302094 C 11.471625 13.501469 10.495375 13.446469 9.662813 13.291094 C 9.030313 13.169063 8.487187 13.002344 8.032063 12.813969 C 7.777 12.710844 7.49925 12.59225 7.222188 12.436875 C 7.188844 12.414532 7.1555 12.403531 7.119062 12.381875 C 7.096719 12.370874 7.085719 12.359531 7.074375 12.359531 L 6.763625 12.170468 C 6.763625 12.170468 7.296437 13.047031 8.705125 13.468469 L 7.961938 14.378031 C 5.509969 14.300344 4.578063 12.702937 4.578063 12.702937 C 4.578063 9.163688 6.175812 6.290281 6.175812 6.290281 C 7.773562 5.103313 9.282281 5.136312 9.282281 5.136312 L 9.393312 5.269344 C 7.399562 5.835155 6.486563 6.71172 6.486563 6.71172 C 6.486563 6.71172 6.727188 6.578688 7.141063 6.40097 C 8.328031 5.879499 9.271281 5.746468 9.659375 5.702124 C 9.726063 5.691124 9.781406 5.679783 9.848437 5.679783 C 10.591835 5.582884 11.344162 5.575382 12.089343 5.657438 C 13.259562 5.7925 14.393122 6.150246 15.428875 6.711376 C 15.428875 6.711376 14.552313 5.879499 12.6665 5.313343 L 12.821875 5.135969 C 12.821875 5.135969 14.341938 5.102625 15.928345 6.289938 C 15.928345 6.289938 17.526094 9.163688 17.526094 12.702594 C 17.526094 12.691594 16.597969 14.289001 14.142219 14.366343 Z"/>
</svg>
