<?xml version="1.0" encoding="UTF-8"?>
<!-- Generated by Pixelmator Pro 2.3.8 -->
<svg width="22" height="22" viewBox="0 0 22 22" xmlns="http://www.w3.org/2000/svg" xmlns:xlink="http://www.w3.org/1999/xlink">
    <g id="Group">
        <g id="g1">
            <g id="g2">
                <path id="Fill-1" fill="#991b1b" stroke="none" d="M 9.9 16.293751 C 10.24375 16.293751 10.553125 16.56875 10.553125 16.946875 C 10.553125 17.290625 10.278125 17.6 9.9 17.6 C 9.55625 17.6 9.246875 17.325001 9.246875 16.946875 C 9.246875 16.56875 9.55625 16.293751 9.9 16.293751 M 20.00625 12.30625 C 19.6625 12.30625 19.353125 12.03125 19.353125 11.653126 C 19.353125 11.309376 19.628124 11 20.00625 11 C 20.35 11 20.659374 11.275 20.659374 11.653126 C 20.659374 11.996876 20.35 12.30625 20.00625 12.30625 M 20.00625 9.659374 C 18.90625 9.659374 18.012501 10.553125 18.012501 11.653126 C 18.012501 11.859375 18.046875 12.065624 18.115625 12.271875 L 11.549999 15.778126 C 11.171875 15.228125 10.553125 14.918751 9.9 14.918751 C 9.14375 14.918751 8.45625 15.365625 8.1125 16.018749 L 2.2 12.924999 C 1.58125 12.581249 1.1 11.584375 1.16875 10.621876 C 1.203125 10.140625 1.375 9.762501 1.615625 9.625 C 1.7875 9.521875 1.959375 9.55625 2.2 9.659374 L 2.234375 9.69375 C 3.815625 10.518749 8.9375 13.200001 9.14375 13.303125 C 9.4875 13.440624 9.659375 13.509375 10.24375 13.234375 L 20.831249 7.734375 C 21.003124 7.665625 21.174999 7.528126 21.174999 7.2875 C 21.174999 6.978125 20.865625 6.840626 20.865625 6.840626 C 20.246876 6.565624 19.31875 6.11875 18.424999 5.706249 C 16.5 4.8125 14.299999 3.78125 13.3375 3.265625 C 12.512501 2.81875 11.825001 3.196875 11.721874 3.265625 L 11.481251 3.36875 C 7.115625 5.56875 1.340625 8.421875 0.996875 8.628124 C 0.4125 8.971874 0.034375 9.69375 -0 10.5875 C -0.06875 11.996876 0.653125 13.475 1.684375 13.990625 L 7.940625 17.221874 C 8.078125 18.184376 8.9375 18.940624 9.9 18.940624 C 11 18.940624 11.859375 18.081249 11.893749 16.981251 L 18.768749 13.268749 C 19.112499 13.543751 19.559376 13.68125 20.00625 13.68125 C 21.106251 13.68125 22 12.7875 22 11.6875 C 22 10.553125 21.106251 9.659374 20.00625 9.659374"/>
            </g>
        </g>
    </g>
</svg>
